<?xml version="1.0" encoding="UTF-8"?>
<svg version="1.1" xmlns="http://www.w3.org/2000/svg" width="96" height="96">
<path d="M0 0 C0.66 0 1.32 0 2 0 C2 1.32 2 2.64 2 4 C2.66 4.20625 3.32 4.4125 4 4.625 C12.75984199 8.63992758 17.76216837 14.778501 22.14453125 23.19921875 C23.37517193 27.22830261 23.32889145 31.06034476 23.3125 35.25 C23.32861328 36.05824219 23.34472656 36.86648437 23.36132812 37.69921875 C23.36869238 46.90454077 20.81809125 55.10679375 14.24609375 61.78125 C8.30568687 67.26827945 1.24175784 72.19744771 -7.125 72.0625 C-7.91390625 72.05476563 -8.7028125 72.04703125 -9.515625 72.0390625 C-11.171875 72.01302083 -12.828125 71.98697917 -14.484375 71.9609375 C-15.27328125 71.95320313 -16.0621875 71.94546875 -16.875 71.9375 C-17.59429687 71.92589844 -18.31359375 71.91429688 -19.0546875 71.90234375 C-21.21841518 71.92376879 -21.21841518 71.92376879 -24 73 C-24.33 72.01 -24.66 71.02 -25 70 C-26.64708705 68.93474862 -28.34391339 67.94557723 -30.0625 67 C-38.19456239 62.00866912 -44.18261225 54.15651018 -47 45 C-47.1875 41.0625 -47.1875 41.0625 -47 38 C-46.34 38 -45.68 38 -45 38 C-44.85304688 38.76183594 -44.70609375 39.52367187 -44.5546875 40.30859375 C-42.29117211 50.72856978 -38.59633244 57.68307756 -29.83203125 63.90625 C-27.88483249 65.15771388 -27.88483249 65.15771388 -25 66 C-25 64.68 -25 63.36 -25 62 C-26.61045619 60.38199243 -26.61045619 60.38199243 -28.75 59.0625 C-35.19885847 54.51304076 -38.94664405 49.2346162 -40.51171875 41.45703125 C-41.62832411 32.94441619 -40.23697911 25.88722281 -35.375 18.75 C-29.77681164 11.88770459 -22.42682144 7.70129811 -13.6015625 6.73828125 C-12.00974676 6.58512548 -10.41581661 6.45191977 -8.8203125 6.34375 C-8.21960937 6.2303125 -7.61890625 6.116875 -7 6 C-6.67 5.34 -6.34 4.68 -6 4 C-8.88415883 2.55792059 -11.41721528 2.90605113 -14.625 2.9375 C-16.40777344 2.95103516 -16.40777344 2.95103516 -18.2265625 2.96484375 C-19.59941406 2.98224609 -19.59941406 2.98224609 -21 3 C-17.29741227 0.53160818 -15.40022696 0.79249574 -11 0.875 C-9.14375 0.90207031 -9.14375 0.90207031 -7.25 0.9296875 C-6.1775 0.95289063 -5.105 0.97609375 -4 1 C-3.01 1 -2.02 1 -1 1 C-0.67 0.67 -0.34 0.34 0 0 Z M-3 5 C-5.34287418 7.67247634 -5.34287418 7.67247634 -6 11 C-6.66 10.67 -7.32 10.34 -8 10 C-15.18297891 9.22507281 -21.20984887 10.3184854 -27.13671875 14.51171875 C-32.26305719 18.7283927 -35.67638621 22.91885749 -37.75 29.3125 C-38.7453776 40.0128092 -37.4809301 47.63649247 -30.76171875 56.234375 C-27.87626127 59.12623039 -24.7539059 60.44665963 -21 62 C-21.185625 62.61875 -21.37125 63.2375 -21.5625 63.875 C-22.23686176 66.04160178 -22.23686176 66.04160178 -21 68 C-20.63874023 67.50822266 -20.27748047 67.01644531 -19.90527344 66.50976562 C-18.1876521 64.17258536 -16.46901541 61.83615512 -14.75 59.5 C-14.12262939 58.64736572 -13.49525879 57.79473145 -12.84887695 56.91625977 C-8.15568001 50.54696328 -3.42342586 44.20834832 1.35449219 37.90234375 C3.89390429 34.59010983 3.89390429 34.59010983 6 31 C5.42283656 35.20504791 2.94944557 38.1801468 0.5 41.5 C0.0572876 42.11077393 -0.3854248 42.72154785 -0.84155273 43.35083008 C-3.07298292 46.41770773 -5.33820959 49.45764917 -7.62890625 52.48046875 C-8.03882812 53.021875 -8.44875 53.56328125 -8.87109375 54.12109375 C-10.00341662 55.60981988 -11.14406445 57.09220321 -12.28515625 58.57421875 C-14.14766792 60.96065838 -14.14766792 60.96065838 -15 64 C-12.36 64 -9.72 64 -7 64 C-7.62648438 64.02578125 -8.25296875 64.0515625 -8.8984375 64.078125 C-10.12433594 64.16320312 -10.12433594 64.16320312 -11.375 64.25 C-12.18710937 64.29640625 -12.99921875 64.3428125 -13.8359375 64.390625 C-16.18838927 64.7922092 -16.18838927 64.7922092 -17.2890625 67.046875 C-17.52367188 67.69140625 -17.75828125 68.3359375 -18 69 C-16.40656017 70.59343983 -14.76821209 70.20870742 -12.5625 70.25 C-2.51711476 70.09281759 5.49476845 66.68860013 13 60 C19.82659676 52.12426311 22.67751134 43.39918996 22.3359375 33.046875 C21.12737069 22.08545513 15.58363246 14.38660838 7.15234375 7.48828125 C5.06267166 6.02499735 3.5982161 5 1 5 C0.67 6.65 0.34 8.3 0 10 C0.87011719 10.47566406 0.87011719 10.47566406 1.7578125 10.9609375 C8.67560781 15.09334988 13.02675213 20.21023079 15.65234375 27.9140625 C16.11891607 30.71349641 16.09332655 33.41395726 16.0625 36.25 C16.05347656 37.32765625 16.04445312 38.4053125 16.03515625 39.515625 C16.02355469 40.33546875 16.01195312 41.1553125 16 42 C15.98582031 41.17757812 15.97164062 40.35515625 15.95703125 39.5078125 C15.54528109 29.87063315 13.7915088 22.1558771 6.5 15.4375 C3.78442135 13.17665268 1.48072274 12.53045261 -2 12 C-3.00399524 14.62353518 -4.00334445 17.24867795 -5 19.875 C-5.42925781 20.99455078 -5.42925781 20.99455078 -5.8671875 22.13671875 C-7.43336648 25.95985011 -7.43336648 25.95985011 -8 30 C-8.99 30.33 -9.98 30.66 -11 31 C-10.72212646 30.28344238 -10.44425293 29.56688477 -10.15795898 28.82861328 C-8.90987443 25.59707348 -7.67355804 22.36115789 -6.4375 19.125 C-5.99986328 17.99707031 -5.56222656 16.86914062 -5.11132812 15.70703125 C-4.70205078 14.63066406 -4.29277344 13.55429687 -3.87109375 12.4453125 C-3.29766235 10.95281982 -3.29766235 10.95281982 -2.71264648 9.43017578 C-1.70636645 7.01990627 -1.70636645 7.01990627 -3 5 Z " fill="#070606" transform="translate(60,12)"/>
<path d="M0 0 C0.66 0.33 1.32 0.66 2 1 C1.34 3.97 0.68 6.94 0 10 C0.721875 10.2475 1.44375 10.495 2.1875 10.75 C9.27452885 13.8997906 12.58846335 19.26329472 16 26 C17.14015502 29.33950729 17.16572664 32.54827961 17.1875 36.0625 C17.20167969 37.10535156 17.21585938 38.14820313 17.23046875 39.22265625 C17 42 17 42 15 45 C14.98582031 43.96101563 14.97164062 42.92203125 14.95703125 41.8515625 C14.69483027 32.47759622 14.21102599 23.94691941 6.99609375 17.09765625 C4.04845577 14.79057312 1.56432638 13.18810879 -2 12 C-2.12246094 12.70898438 -2.24492188 13.41796875 -2.37109375 14.1484375 C-3.23949092 18.08589052 -4.71422781 21.72023594 -6.16015625 25.4765625 C-7.15789355 28.03116084 -7.15789355 28.03116084 -7 31 C-8.32 31 -9.64 31 -11 31 C-8.56541729 22.58782396 -5.79856214 14.29613284 -3 6 C-3.38800781 6.82242187 -3.77601562 7.64484375 -4.17578125 8.4921875 C-6 11 -6 11 -8.41796875 11.3828125 C-9.78888672 11.25519531 -9.78888672 11.25519531 -11.1875 11.125 C-19.24847903 10.76342574 -24.58068538 13.3459969 -31 18 C-31 16.68 -31 15.36 -31 14 C-24.94632258 8.30797084 -16.80879121 6.88534178 -8.8203125 6.34375 C-8.21960938 6.2303125 -7.61890625 6.116875 -7 6 C-6.67 5.34 -6.34 4.68 -6 4 C-8.88415883 2.55792059 -11.41721528 2.90605113 -14.625 2.9375 C-16.40777344 2.95103516 -16.40777344 2.95103516 -18.2265625 2.96484375 C-19.59941406 2.98224609 -19.59941406 2.98224609 -21 3 C-17.29741227 0.53160818 -15.40022696 0.79249574 -11 0.875 C-9.14375 0.90207031 -9.14375 0.90207031 -7.25 0.9296875 C-6.1775 0.95289063 -5.105 0.97609375 -4 1 C-3.01 1 -2.02 1 -1 1 C-0.67 0.67 -0.34 0.34 0 0 Z " fill="#0A0809" transform="translate(60,12)"/>
<path d="M0 0 C0.66 0 1.32 0 2 0 C2.14695312 0.76183594 2.29390625 1.52367187 2.4453125 2.30859375 C4.70026908 12.68916975 8.39773361 19.63691586 17.0703125 25.90625 C19.04818053 27.0273088 20.77770714 27.56541829 23 28 C23 28.66 23 29.32 23 30 C20 31 20 31 17.765625 29.91796875 C9.36407467 24.13864143 3.14674431 16.81043815 0 7 C-0.1875 3.0625 -0.1875 3.0625 0 0 Z " fill="#040504" transform="translate(13,50)"/>
<path d="M0 0 C1.59521484 -0.03867187 1.59521484 -0.03867187 3.22265625 -0.078125 C4.11855469 0.03015625 5.01445313 0.1384375 5.9375 0.25 C6.5975 1.24 7.2575 2.23 7.9375 3.25 C7.23625 3.21519531 6.535 3.18039063 5.8125 3.14453125 C-3.50884562 2.87856894 -9.57235808 4.81964711 -17.0625 10.25 C-17.0625 8.93 -17.0625 7.61 -17.0625 6.25 C-15.41796875 4.80078125 -15.41796875 4.80078125 -13.25 3.5625 C-12.54230469 3.14613281 -11.83460937 2.72976562 -11.10546875 2.30078125 C-7.32082253 0.35418501 -4.2041022 0.06129918 0 0 Z " fill="#0C0C0C" transform="translate(46.0625,19.75)"/>
<path d="M0 0 C0.66 0.66 1.32 1.32 2 2 C1.48709376 6.73827668 -0.46023312 11.0603921 -2.16015625 15.4765625 C-3.15789355 18.03116084 -3.15789355 18.03116084 -3 21 C-4.32 21 -5.64 21 -7 21 C-4.96192707 13.8821847 -2.59655258 6.93292719 0 0 Z " fill="#070707" transform="translate(56,22)"/>
<path d="M0 0 C5.94 0.33 11.88 0.66 18 1 C17.34 2.98 16.68 4.96 16 7 C15.67 6.01 15.34 5.02 15 4 C8.07 3.505 8.07 3.505 1 3 C0.67 2.01 0.34 1.02 0 0 Z " fill="#080808" transform="translate(30,52)"/>
<path d="M0 0 C0.66 0.33 1.32 0.66 2 1 C0.33333333 4.33333333 -1.33333333 7.66666667 -3 11 C-3.99 11 -4.98 11 -6 11 C-4.74194623 6.49197399 -3.09592835 3.5087188 0 0 Z " fill="#0A090A" transform="translate(27,28)"/>
<path d="M0 0 C1.95766281 -0.08082094 3.91626728 -0.13910778 5.875 -0.1875 C7.51082031 -0.23970703 7.51082031 -0.23970703 9.1796875 -0.29296875 C10.11039063 -0.19628906 11.04109375 -0.09960938 12 0 C12.66 0.99 13.32 1.98 14 3 C9.05 3 4.1 3 -1 3 C-0.67 2.01 -0.34 1.02 0 0 Z " fill="#1B1A1A" transform="translate(40,20)"/>
<path d="M0 0 C4.4062186 1.34634457 6.43077702 3.19374374 9 7 C9 7.66 9 8.32 9 9 C8.34 9 7.68 9 7 9 C5.31267723 7.01739574 3.64633943 5.0167658 2 3 C1.34 2.67 0.68 2.34 0 2 C0 1.34 0 0.68 0 0 Z " fill="#1F1F1F" transform="translate(64,25)"/>
<path d="M0 0 C1.45047396 2.90094791 0.45356803 4.55972596 -0.4375 7.625 C-0.86869141 9.12933594 -0.86869141 9.12933594 -1.30859375 10.6640625 C-1.53675781 11.43492188 -1.76492188 12.20578125 -2 13 C-2.66 12.67 -3.32 12.34 -4 12 C-3.5317879 7.22423661 -2.75668002 3.95523655 0 0 Z " fill="#0B0B0B" transform="translate(17,32)"/>
<path d="M0 0 C0.66 0.33 1.32 0.66 2 1 C1.67 2.98 1.34 4.96 1 7 C0.34 7 -0.32 7 -1 7 C-1.625 4.625 -1.625 4.625 -2 2 C-1.34 1.34 -0.68 0.68 0 0 Z " fill="#1E1B1C" transform="translate(60,12)"/>
<path d="M0 0 C0.99 0.33 1.98 0.66 3 1 C1.35 1.33 -0.3 1.66 -2 2 C-1.34 1.34 -0.68 0.68 0 0 Z " fill="#070505" transform="translate(59,73)"/>
<path d="" fill="#090509" transform="translate(0,0)"/>
<path d="" fill="#0A0708" transform="translate(0,0)"/>
<path d="" fill="#0B0709" transform="translate(0,0)"/>
<path d="" fill="#0B0606" transform="translate(0,0)"/>
<path d="M0 0 C3 1 3 1 3 1 Z " fill="#080808" transform="translate(36,15)"/>
<path d="" fill="#080808" transform="translate(0,0)"/>
<path d="" fill="#060404" transform="translate(0,0)"/>
<path d="" fill="#070507" transform="translate(0,0)"/>
<path d="" fill="#0B0A0A" transform="translate(0,0)"/>
<path d="" fill="#272323" transform="translate(0,0)"/>
<path d="M0 0 C2 1 2 1 2 1 Z " fill="#2B1515" transform="translate(27,20)"/>
<path d="M0 0 C2 1 2 1 2 1 Z " fill="#0E0E0E" transform="translate(30,18)"/>
<path d="M0 0 C2 1 2 1 2 1 Z " fill="#020000" transform="translate(32,17)"/>
<path d="M0 0 C2 1 2 1 2 1 Z " fill="#040404" transform="translate(34,16)"/>
<path d="" fill="#000000" transform="translate(0,0)"/>
<path d="" fill="#070707" transform="translate(0,0)"/>
<path d="" fill="#0C0C0C" transform="translate(0,0)"/>
<path d="" fill="#000000" transform="translate(0,0)"/>
<path d="" fill="#0D0D0D" transform="translate(0,0)"/>
<path d="" fill="#000000" transform="translate(0,0)"/>
<path d="" fill="#050505" transform="translate(0,0)"/>
<path d="" fill="#0C0C0C" transform="translate(0,0)"/>
<path d="" fill="#000000" transform="translate(0,0)"/>
<path d="" fill="#000000" transform="translate(0,0)"/>
<path d="" fill="#000000" transform="translate(0,0)"/>
<path d="" fill="#000000" transform="translate(0,0)"/>
<path d="" fill="#0D0D0D" transform="translate(0,0)"/>
<path d="" fill="#0E0E0E" transform="translate(0,0)"/>
<path d="" fill="#000000" transform="translate(0,0)"/>
<path d="" fill="#000000" transform="translate(0,0)"/>
<path d="" fill="#0C0C0C" transform="translate(0,0)"/>
<path d="" fill="#030303" transform="translate(0,0)"/>
<path d="" fill="#111111" transform="translate(0,0)"/>
<path d="" fill="#0A0A0A" transform="translate(0,0)"/>
<path d="" fill="#151515" transform="translate(0,0)"/>
<path d="" fill="#241212" transform="translate(0,0)"/>
<path d="" fill="#050000" transform="translate(0,0)"/>
<path d="" fill="#0A0A0A" transform="translate(0,0)"/>
<path d="" fill="#090606" transform="translate(0,0)"/>
<path d="" fill="#1E1E1E" transform="translate(0,0)"/>
<path d="" fill="#1D1D1D" transform="translate(0,0)"/>
<path d="" fill="#0E0E0E" transform="translate(0,0)"/>
<path d="" fill="#0C070C" transform="translate(0,0)"/>
<path d="" fill="#0D0D0D" transform="translate(0,0)"/>
</svg>
